<svg width="2000" height="694" viewBox="0 0 2000 694" fill="none" xmlns="http://www.w3.org/2000/svg">
<path d="M1884.4 0H1421.92C1358.08 0 1306.32 51.7572 1306.32 115.603V578.078C1306.32 641.924 1358.08 693.681 1421.92 693.681H1884.4C1948.24 693.681 2000 641.924 2000 578.078V115.603C2000 51.7572 1948.24 0 1884.4 0Z" fill="#F2FF66"/>
<path d="M1723.2 518.026V431.403C1723.2 392.975 1691.87 361.712 1653.32 361.712C1614.76 361.712 1583.44 392.911 1583.44 431.403V518.026H1552.68V431.403C1552.68 392.975 1521.35 361.712 1482.8 361.712H1462.95V331.02H1482.67C1521.23 331.02 1552.55 299.82 1552.55 261.328V175.53H1583.31V261.201C1583.31 299.63 1614.64 330.893 1653.19 330.893C1691.75 330.893 1723.07 299.694 1723.07 261.201V175.53H1753.83V261.201C1753.83 299.63 1785.15 330.893 1823.71 330.893H1843.43V361.585H1823.71C1785.15 361.585 1753.83 392.785 1753.83 431.277V517.9H1723.07L1723.2 518.026Z" fill="#191314"/>
<path d="M332.35 331.145C244.586 317.321 156.124 317.384 68.3598 331.145V117.061H0V576.556H68.3598V400.583C156.061 385.554 244.649 385.617 332.35 400.583V576.556H400.71V117.061H332.35V331.145Z" fill="#191314"/>
<path d="M579.663 117.061H511.303V576.556H579.663V117.061Z" fill="#191314"/>
<path d="M1140.49 117.061H1072.13V576.556H1140.49V117.061Z" fill="#191314"/>
<path d="M677.574 272.805V576.556H745.933V406.227H961.54V337.867H745.933V272.805C745.933 224.61 785.123 185.421 833.317 185.421H993.183V117.061H833.317C747.455 117.061 677.574 186.943 677.574 272.805Z" fill="#191314"/>
</svg>
